<svg width="48" height="48" viewBox="0 0 48 48" fill="none" xmlns="http://www.w3.org/2000/svg">
<g fill="#000">
<path d="M24 12C26.3734 12 28.6935 12.7038 30.6669 14.0224C32.6402 15.3409 34.1783 17.2151 35.0866 19.4078C35.9948 21.6005 36.2325 24.0133 35.7694 26.3411C35.3064 28.6689 34.1635 30.8071 32.4853 32.4853C30.8071 34.1635 28.6689 35.3064 26.3411 35.7694C24.0133 36.2324 21.6005 35.9948 19.4078 35.0866C17.2151 34.1783 15.3409 32.6402 14.0224 30.6668C12.7038 28.6935 12 26.3734 12 24C12 20.8174 13.2643 17.7652 15.5147 15.5147C17.7652 13.2643 20.8174 12 24 12ZM24 8C20.8355 8 17.7421 8.93838 15.1109 10.6965C12.4797 12.4546 10.4289 14.9534 9.21793 17.8771C8.00693 20.8007 7.69008 24.0177 8.30744 27.1214C8.92481 30.2251 10.4487 33.0761 12.6863 35.3137C14.9239 37.5513 17.7749 39.0752 20.8786 39.6926C23.9823 40.3099 27.1993 39.9931 30.1229 38.7821C33.0466 37.5711 35.5454 35.5203 37.3035 32.8891C39.0616 30.2579 40 27.1645 40 24C40 19.7565 38.3143 15.6869 35.3137 12.6863C32.3131 9.68571 28.2435 8 24 8Z"/>
<path d="M24 32.29C26.1536 32.1422 28.1708 31.1824 29.644 29.6046C31.1172 28.0268 31.9366 25.9486 31.9366 23.79C31.9366 21.6314 31.1172 19.5532 29.644 17.9754C28.1708 16.3976 26.1536 15.4378 24 15.29"/>
</g>
</svg>
