<svg width="238" height="276" fill="none" xmlns="http://www.w3.org/2000/svg"><path d="m211.31 81.63 4.28-4.29c6.16-6.17 7.29-15.15 2.5-19.94-4.8-4.79-13.76-3.68-19.91 2.5l-4.3 4.3a118.27 118.27 0 0 0-59.7-25.57v-7.67h6.13c8.7 0 15.84-6.97 15.84-15.48 0-8.5-7.13-15.48-15.84-15.48H97.72c-8.71 0-15.84 6.97-15.84 15.48 0 8.52 7.13 15.48 15.84 15.48h6.12v7.67a118.94 118.94 0 0 0-69.05 34 119.31 119.31 0 0 0-18.32 144.68 119.05 119.05 0 0 0 58.38 50.19 118.84 118.84 0 0 0 76.85 3.91 118.99 118.99 0 0 0 63.18-43.99 119.28 119.28 0 0 0-3.57-145.8Zm-92.3 163.32a87.9 87.9 0 0 1-48.88-14.85A88.23 88.23 0 0 1 56.8 94.53a87.95 87.95 0 0 1 95.89-19.1 88.01 88.01 0 0 1 39.49 32.45 88.2 88.2 0 0 1-10.95 111.26 87.92 87.92 0 0 1-62.22 25.8Z" fill="#DEDEDE"/><circle cx="119" cy="157" r="93" stroke="#D22856" stroke-width="16"/><path d="M115.81 191h-47.9v-10.08l17.2-17.39c3.47-3.56 6.25-6.53 8.34-8.9a29.53 29.53 0 0 0 4.6-6.57 14.14 14.14 0 0 0 1.45-6.33c0-2.71-.77-4.75-2.3-6.09-1.5-1.37-3.51-2.06-6.04-2.06-2.66 0-5.24.6-7.74 1.83a39.92 39.92 0 0 0-7.83 5.2l-7.87-9.33a73.13 73.13 0 0 1 6.23-4.78 29.1 29.1 0 0 1 7.7-3.6 34.37 34.37 0 0 1 10.54-1.42c4.5 0 8.36.82 11.58 2.44a18.14 18.14 0 0 1 7.5 6.66 17.4 17.4 0 0 1 2.62 9.47c0 3.78-.75 7.23-2.25 10.36a37.31 37.31 0 0 1-6.56 9.28 189.91 189.91 0 0 1-10.31 10.17l-8.82 8.3v.65h29.86V191Zm56.49-14.2h-8.25V191h-14.16v-14.2h-29.25v-10.08l30.05-44.25h13.36v43.08h8.25v11.25Zm-22.4-11.25v-11.63c0-1.1 0-2.39.04-3.89l.19-4.5a349 349 0 0 1 .18-3.98l.19-2.49h-.38a52.8 52.8 0 0 1-4.17 7.5l-12.56 18.99h16.5Z" fill="#D22856"/></svg>